# xmcd CD database file
#
# Track frame offsets:
#	150
#	14997
#	32937
#	44092
#	55700
#	70082
#	81650
#	91237
#	117937
#	139840
#	171260
#
# Disc length: 2609 seconds
#
# Revision: 2
# Processed by: cddbd v1.4PL0 Copyright (c) Steve Scherf et al.
# Submitted via: CDex 1.40Release
#
DISCID=a20a2f0b
DTITLE=The Electric Kings - Electronic - CD 2
DYEAR=1997
DGENRE=Blues
TTITLE0=Lollypop Mama
TTITLE1=Red Hot Kisses
TTITLE2=Back From the Mail
TTITLE3=Baby Take It Easy
TTITLE4=How Many More Years
TTITLE5=One Way Out
TTITLE6=Rock Awhile
TTITLE7=Blue and Lonesome
TTITLE8=Drunken Hearted Man
TTITLE9=Love Is Just A Gamble
TTITLE10=Chromatic Bounce
EXTD=YEAR: 1997 ID3G: 0
EXTT0=
EXTT1=
EXTT2=
EXTT3=
EXTT4=
EXTT5=
EXTT6=
EXTT7=
EXTT8=
EXTT9=
EXTT10=
PLAYORDER=
